<svg width="91" height="91" viewBox="0 0 91 91" fill="none" xmlns="http://www.w3.org/2000/svg">
<path d="M24.2437 0H65.8042C79.1936 0 90.0479 10.8543 90.0479 24.2437V65.8042C90.0479 79.1936 79.1936 90.0479 65.8042 90.0479H24.2437C10.8543 90.0479 0 79.1936 0 65.8042V24.2437C0 10.8543 10.8543 0 24.2437 0Z" fill="#FBFCFE"/>
<path fill-rule="evenodd" clip-rule="evenodd" d="M46.5151 37.0927C41.3196 37.0927 37.0927 41.3196 37.0927 46.5151C37.0927 51.7105 41.3196 55.9375 46.5151 55.9375C51.7105 55.9375 55.9375 51.7105 55.9375 46.5151C55.9375 41.3196 51.7105 37.0927 46.5151 37.0927ZM46.5148 24.2437C58.8148 24.2437 68.786 34.2148 68.786 46.5148C68.786 58.8148 58.8148 68.786 46.5148 68.786C34.2148 68.786 24.2437 58.8148 24.2437 46.5148C24.2437 34.2148 34.2148 24.2437 46.5148 24.2437Z" fill="#2D66A9"/>
<path d="M48.4873 45.0239L55.4141 20.7803L69.2676 32.9021L48.4873 45.0239Z" fill="#FBFCFE"/>
</svg>
