<svg width="25" height="24" viewBox="0 0 25 24" fill="none" xmlns="http://www.w3.org/2000/svg">
<path d="M13.5435 11.4261C14.6961 11.4261 15.6304 10.4917 15.6304 9.33911C15.6304 8.18652 14.6961 7.25216 13.5435 7.25216C12.3909 7.25216 11.4565 8.18652 11.4565 9.33911C11.4565 10.4917 12.3909 11.4261 13.5435 11.4261Z" fill="#737373"/>
<path d="M10.9976 16.6435H16.0894C16.8852 16.6435 17.4429 15.8579 17.1805 15.1065C15.9778 11.6639 11.1091 11.6639 9.90647 15.1065C9.64399 15.8579 10.2017 16.6435 10.9976 16.6435Z" fill="#737373"/>
<path fill-rule="evenodd" clip-rule="evenodd" d="M3.63052 16.6956H2.58694C2.01064 16.6956 1.54346 17.1628 1.54346 17.7391C1.54346 18.3154 2.01064 18.7826 2.58694 18.7826H3.67046C3.72044 19.6011 3.83279 20.1818 4.08534 20.6775C4.48551 21.4629 5.12404 22.1014 5.90941 22.5016C6.80226 22.9565 7.97106 22.9565 10.3087 22.9565H15.7348C18.0724 22.9565 19.2412 22.9565 20.134 22.5016C20.9194 22.1014 21.5579 21.4629 21.9581 20.6775C22.413 19.7847 22.413 18.6159 22.413 16.2782V7.72172C22.413 5.38411 22.413 4.2153 21.9581 3.32245C21.5579 2.53708 20.9194 1.89855 20.134 1.49839C19.2412 1.04346 18.0724 1.04346 15.7348 1.04346H10.3087C7.97106 1.04346 6.80226 1.04346 5.90941 1.49839C5.12404 1.89855 4.48551 2.53708 4.08534 3.32245C3.7369 4.00631 3.65534 4.85205 3.63625 6.26085H2.58694C2.01064 6.26085 1.54346 6.72803 1.54346 7.30433C1.54346 7.88062 2.01064 8.34781 2.58694 8.34781H3.63041V11.4782H2.58694C2.01064 11.4782 1.54346 11.9454 1.54346 12.5217C1.54346 13.098 2.01064 13.5652 2.58694 13.5652H3.63041L3.63052 16.6956ZM15.7348 3.13041H10.3087C9.10543 3.13041 8.32851 3.13204 7.7372 3.18035C7.17025 3.22667 6.96005 3.3053 6.85687 3.35788C6.46418 3.55796 6.14492 3.87723 5.94483 4.26991C5.89226 4.3731 5.81363 4.5833 5.7673 5.15024C5.74211 5.4586 5.72961 5.81742 5.72342 6.26085H6.76085C7.33715 6.26085 7.80433 6.72803 7.80433 7.30433C7.80433 7.88062 7.33715 8.34781 6.76085 8.34781H5.71737V11.4782H6.76085C7.33715 11.4782 7.80433 11.9454 7.80433 12.5217C7.80433 13.098 7.33715 13.5652 6.76085 13.5652H5.71737L5.71752 16.6956H6.76085C7.33715 16.6956 7.80433 17.1628 7.80433 17.7391C7.80433 18.3154 7.33715 18.7826 6.76085 18.7826H5.76208L5.7673 18.8497C5.81363 19.4167 5.89226 19.6269 5.94483 19.73C6.14492 20.1227 6.46418 20.442 6.85687 20.6421C6.96005 20.6947 7.17025 20.7733 7.7372 20.8196C8.32851 20.8679 9.10543 20.8695 10.3087 20.8695H15.7348C16.938 20.8695 17.7149 20.8679 18.3062 20.8196C18.8732 20.7733 19.0834 20.6947 19.1866 20.6421C19.5793 20.442 19.8985 20.1227 20.0986 19.73C20.1512 19.6269 20.2298 19.4167 20.2761 18.8497C20.3244 18.2584 20.3261 17.4815 20.3261 16.2782V7.72172C20.3261 6.51848 20.3244 5.74156 20.2761 5.15024C20.2298 4.5833 20.1512 4.3731 20.0986 4.26991C19.8985 3.87723 19.5793 3.55796 19.1866 3.35788C19.0834 3.3053 18.8732 3.22667 18.3062 3.18035C17.7149 3.13204 16.938 3.13041 15.7348 3.13041Z" fill="#737373"/>
</svg>
