<svg width="24" height="24" viewBox="0 0 24 24" fill="none" xmlns="http://www.w3.org/2000/svg">
<g clip-path="url(#clip0_396_3972)">
<path d="M7.25 13C7.25 13.5523 6.80229 14 6.25 14C5.69772 14 5.25 13.5523 5.25 13C5.25 12.4477 5.69772 12 6.25 12C6.80229 12 7.25 12.4477 7.25 13Z" fill="#2D66A9"/>
<path d="M11.25 13C11.25 13.5523 10.8023 14 10.25 14C9.69772 14 9.25 13.5523 9.25 13C9.25 12.4477 9.69772 12 10.25 12C10.8023 12 11.25 12.4477 11.25 13Z" fill="#2D66A9"/>
<path d="M14.25 14C14.8023 14 15.25 13.5523 15.25 13C15.25 12.4477 14.8023 12 14.25 12C13.6977 12 13.25 12.4477 13.25 13C13.25 13.5523 13.6977 14 14.25 14Z" fill="#2D66A9"/>
<path d="M19.25 13C19.25 13.5523 18.8023 14 18.25 14C17.6977 14 17.25 13.5523 17.25 13C17.25 12.4477 17.6977 12 18.25 12C18.8023 12 19.25 12.4477 19.25 13Z" fill="#2D66A9"/>
<path d="M6.25 18C6.80229 18 7.25 17.5523 7.25 17C7.25 16.4477 6.80229 16 6.25 16C5.69772 16 5.25 16.4477 5.25 17C5.25 17.5523 5.69772 18 6.25 18Z" fill="#2D66A9"/>
<path d="M11.25 17C11.25 17.5523 10.8023 18 10.25 18C9.69772 18 9.25 17.5523 9.25 17C9.25 16.4477 9.69772 16 10.25 16C10.8023 16 11.25 16.4477 11.25 17Z" fill="#2D66A9"/>
<path d="M14.25 18C14.8023 18 15.25 17.5523 15.25 17C15.25 16.4477 14.8023 16 14.25 16C13.6977 16 13.25 16.4477 13.25 17C13.25 17.5523 13.6977 18 14.25 18Z" fill="#2D66A9"/>
<path fill-rule="evenodd" clip-rule="evenodd" d="M8.60719 1H15.8928C16.9766 0.99999 17.8507 0.999982 18.5586 1.05782C19.2875 1.11737 19.9277 1.24318 20.52 1.54497C21.4608 2.02434 22.2257 2.78924 22.705 3.73005C23.0068 4.32234 23.1326 4.96253 23.1922 5.69138C23.25 6.39923 23.25 7.27334 23.25 8.35706V15.6428C23.25 16.7266 23.25 17.6008 23.1922 18.3086C23.1326 19.0375 23.0068 19.6777 22.705 20.27C22.2257 21.2108 21.4608 21.9757 20.52 22.455C19.9277 22.7568 19.2875 22.8826 18.5586 22.9422C17.8508 23 16.9767 23 15.8929 23H8.60717C7.52344 23 6.64923 23 5.94138 22.9422C5.21253 22.8826 4.57234 22.7568 3.98005 22.455C3.03924 21.9757 2.27434 21.2108 1.79497 20.27C1.49318 19.6777 1.36737 19.0375 1.30782 18.3086C1.24998 17.6007 1.24999 16.7266 1.25 15.6428V8.35719C1.24999 7.27341 1.24998 6.39925 1.30782 5.69138C1.36737 4.96253 1.49318 4.32234 1.79497 3.73005C2.27434 2.78924 3.03924 2.02434 3.98005 1.54497C4.57234 1.24318 5.21253 1.11737 5.94138 1.05782C6.64925 0.999983 7.52341 0.99999 8.60719 1ZM6.10424 3.05118C5.49907 3.10062 5.15138 3.19279 4.88803 3.32698C4.32354 3.6146 3.8646 4.07354 3.57698 4.63803C3.44279 4.90138 3.35062 5.24907 3.30118 5.85424C3.27462 6.17923 3.26185 6.55292 3.2557 7H21.2443C21.2382 6.55292 21.2254 6.17923 21.1988 5.85424C21.1494 5.24907 21.0572 4.90138 20.923 4.63803C20.6354 4.07354 20.1765 3.6146 19.612 3.32698C19.3486 3.19279 19.0009 3.10062 18.3958 3.05118C17.7789 3.00078 16.9866 3 15.85 3H8.65C7.51339 3 6.72108 3.00078 6.10424 3.05118ZM21.25 9H3.25V15.6C3.25 16.7366 3.25078 17.5289 3.30118 18.1458C3.35062 18.7509 3.44279 19.0986 3.57698 19.362C3.8646 19.9265 4.32354 20.3854 4.88803 20.673C5.15138 20.8072 5.49907 20.8994 6.10424 20.9488C6.72108 20.9992 7.51339 21 8.65 21H15.85C16.9866 21 17.7789 20.9992 18.3958 20.9488C19.0009 20.8994 19.3486 20.8072 19.612 20.673C20.1765 20.3854 20.6354 19.9265 20.923 19.362C21.0572 19.0986 21.1494 18.7509 21.1988 18.1458C21.2492 17.5289 21.25 16.7366 21.25 15.6V9Z" fill="#2D66A9"/>
</g>
<defs>
<clipPath id="clip0_396_3972">
<rect width="24" height="24" fill="white"/>
</clipPath>
</defs>
</svg>
