<svg width="29" height="27" viewBox="0 0 29 27" fill="none" xmlns="http://www.w3.org/2000/svg">
    <g clip-path="url(#clip0_485_707)">
        <path d="M12 22.5V11.5001M12 22.5L14.8585 22.713C17.6818 22.9232 19.0935 23.0284 20.3147 22.7331C22.8067 22.1307 25.1836 19.9599 26.0089 17.5326C26.4134 16.3431 26.4317 15.2141 26.4683 12.9562V12.9562C26.5 11 25.3418 9.50005 23.5032 9.50005H20C19.4477 9.50005 19 9.05234 19 8.50005C19 6.93178 19 4.96589 19 4.96589C19 3 17.5 2 16.5 2C15.5 2 14.5 2.24832 14.5 4.5C14.5 6.75168 13.0093 9.27081 12.2639 10.9062C12.1034 11.2673 11.7453 11.5001 11.3501 11.5001H9C7.89543 11.5001 7 12.3955 7 13.5001V20.5C7 21.6046 7.89543 22.5 9 22.5H12Z" stroke="#2D66A9" stroke-width="2" stroke-linecap="round" stroke-linejoin="round"/>
        <path d="M7 25.4999V14.5C8.6 11.7 9.33333 8.66661 9.5 7.49994C10.3 2.69993 14 5.49994 14 7.49994V12.4999C19.2 11.6999 20.8333 12.8333 21 13.4999C22.2 15.9 21.1667 20.1666 20.5 21.9999C18.1 26.7999 10.5 26.3333 7 25.4999Z" fill="#EFF3F9"/>
        <path d="M7 15H2V25.5H7V15Z" fill="#2D66A9"/>
        <path fill-rule="evenodd" clip-rule="evenodd" d="M10.8005 6.14298C10.73 6.20757 10.5 6.48676 10.5 7.5C10.5 8.82578 10.0661 10.1655 9.58426 11.3195C9.28546 12.0351 8.91949 12.7819 8.61068 13.412C8.44171 13.7568 8.28986 14.0667 8.17548 14.3174C8.12591 14.4281 8.06702 14.5328 8 14.6306V24.5718L9.9328 24.7157C12.8288 24.9314 14.0487 25.0104 15.0797 24.7611C17.2388 24.2392 19.3471 22.3137 20.0621 20.2106C20.4055 19.2007 20.431 18.2467 20.4684 15.94C20.4811 15.1574 20.255 14.5387 19.9184 14.1341C19.5945 13.7448 19.1278 13.5001 18.5032 13.5001H15C13.8954 13.5001 13 12.6046 13 11.5001H14H18.5032C19.7172 11.5001 20.7489 12.0053 21.4559 12.855C22.1501 13.6894 22.4872 14.7988 22.4681 15.9724C22.4674 16.0206 22.4666 16.0683 22.4658 16.1156C22.4316 18.2384 22.4111 19.5152 21.9557 20.8545C21.0201 23.6061 18.3746 26.0222 15.5497 26.7051C14.1743 27.0376 12.6167 26.9215 9.99285 26.7257C9.92406 26.7206 9.85453 26.7154 9.78425 26.7102L6.96281 26.5H4C2.34315 26.5 1 25.1569 1 23.5V16.5001C1 14.8432 2.34315 13.5001 4 13.5001H6.35013L6.35395 13.4914C6.51824 13.131 6.69335 12.7756 6.87353 12.4098C7.15662 11.8351 7.45233 11.2347 7.73869 10.5489C8.18851 9.47162 8.5 8.4259 8.5 7.5C8.5 6.26156 8.77001 5.29075 9.4495 4.66826C10.1202 4.05381 10.9596 4 11.5 4C13.0442 4 15 5.43966 15 7.96589V11.5001H14H13V7.96589C13 6.56034 11.9558 6 11.5 6C11.0404 6 10.8798 6.07035 10.8005 6.14298ZM6 24.5V15.5001H4C3.44772 15.5001 3 15.9478 3 16.5001V23.5C3 24.0523 3.44772 24.5 4 24.5H6Z" fill="#2D66A9"/>
    </g>
    <defs>
        <clipPath id="clip0_485_707">
            <rect width="29" height="26" fill="white" transform="translate(0 0.5)"/>
        </clipPath>
    </defs>
</svg>
