<svg width="18" height="18" viewBox="0 0 18 18" fill="none" xmlns="http://www.w3.org/2000/svg">
<path d="M16.3086 4.83402V14C16.3086 15.6569 14.9654 17 13.3086 17H5C3.34315 17 2 15.6569 2 14V4C2 2.34315 3.34315 1 5 1H12.248L16.3086 4.83402Z" stroke="#2D66A9" stroke-width="1.5" stroke-miterlimit="10" stroke-linecap="round" stroke-linejoin="round"/>
<path d="M15.8314 4.9183C15.963 5.04253 15.8751 5.26372 15.6941 5.26372H12.3543C12.2438 5.26372 12.1543 5.17417 12.1543 5.06372V1.9102C12.1543 1.73477 12.3641 1.64434 12.4916 1.76478L15.8314 4.9183Z" stroke="#2D66A9" stroke-width="1.5" stroke-miterlimit="10" stroke-linecap="round" stroke-linejoin="round"/>
<path d="M12.5681 1.43982L16.291 4.81747L16.3086 4.83407" stroke="#2D66A9" stroke-width="1.5" stroke-miterlimit="10" stroke-linecap="round" stroke-linejoin="round"/>
<path d="M9 5.25V9.625" stroke="#2D66A9" stroke-width="1.5" stroke-linecap="round" stroke-linejoin="round"/>
<path d="M9.1875 12.4375C9.1875 12.5411 9.10355 12.625 9 12.625C8.89645 12.625 8.8125 12.5411 8.8125 12.4375C8.8125 12.3339 8.89645 12.25 9 12.25C9.10355 12.25 9.1875 12.3339 9.1875 12.4375Z" fill="#2D66A9" stroke="#2D66A9" stroke-width="1.5"/>
</svg>
