<svg width="24" height="24" viewBox="0 0 24 24" fill="none" xmlns="http://www.w3.org/2000/svg">
<path d="M12.197 21.7742C11.6196 21.7742 11.1515 22.2725 11.1515 22.8871C11.1515 23.5017 11.6196 24 12.197 24H20.5606C21.9078 24 23 22.8374 23 21.4032V3.59678C23 2.16262 21.9078 1 20.5606 1H12.197C11.6196 1 11.1515 1.49827 11.1515 2.1129C11.1515 2.72754 11.6196 3.22581 12.197 3.22581L20.5606 3.22581C20.7531 3.22581 20.9091 3.3919 20.9091 3.59678V21.4032C20.9091 21.6081 20.7531 21.7742 20.5606 21.7742H12.197Z" fill="#737373"/>
<path fill-rule="evenodd" clip-rule="evenodd" d="M15.6861 16.0097C16.6484 16.0097 17.4285 15.1792 17.4285 14.1548V10.8302C17.4285 9.80581 16.6484 8.97537 15.6861 8.97537L9.25643 8.97537C9.24733 8.86641 9.23781 8.75748 9.22787 8.64859L9.15256 7.82373C9.03766 6.56525 7.78227 5.81157 6.71114 6.35802C4.43313 7.52018 2.37088 9.11052 0.623586 11.0525L0.485308 11.2062C-0.161769 11.9254 -0.161769 13.0596 0.485307 13.7788L0.623586 13.9325C2.37088 15.8745 4.43313 17.4648 6.71114 18.627C7.78227 19.1735 9.03766 18.4198 9.15256 17.1613L9.22787 16.3364C9.23781 16.2276 9.24733 16.1186 9.25643 16.0097H15.6861ZM8.28712 13.7839C7.91582 13.7839 7.58757 13.9906 7.40193 14.3044C7.31153 14.4572 7.25495 14.6354 7.24369 14.8275C7.2184 15.2591 7.1861 15.6904 7.14677 16.1211L7.12491 16.3605C5.68072 15.5683 4.33956 14.5816 3.1341 13.4258C2.82136 13.1259 2.51776 12.8147 2.22386 12.4925C3.65061 10.9284 5.30605 9.62231 7.12491 8.62449L7.14677 8.86391C7.1861 9.29464 7.2184 9.72592 7.24369 10.1575C7.27806 10.7441 7.735 11.2012 8.28712 11.2012H15.3376V13.7839H8.28712Z" fill="#737373"/>
</svg>
