<svg width="20" height="20" viewBox="0 0 20 20" fill="none" xmlns="http://www.w3.org/2000/svg">
<g clip-path="url(#clip0_190_537)">
<path d="M3.56568 1.85393C3.58092 1.83879 3.59616 1.82366 3.61139 1.81609C4.18281 1.34693 4.89898 0.923169 5.80562 0.612915C5.96562 0.726422 6.27037 0.968571 6.36942 1.3545C6.4837 1.80096 6.28561 2.17932 6.03419 2.64091C5.47039 3.65491 4.60184 4.23002 4.10662 4.54784C4.01519 4.60081 3.95424 4.63864 3.90853 4.66891C3.8171 4.66891 3.7333 4.66135 3.67234 4.64621C3.07807 4.47973 2.8876 3.66248 2.86475 3.57167C2.94093 3.53384 3.51997 3.22358 3.64187 2.58038C3.70282 2.25499 3.61901 1.98257 3.56568 1.85393Z" fill="#0179C1"/>
<path d="M6.67417 0.416194L7.17702 0.113507L9.25696 0C9.25696 0 11.3979 0.628074 9.85885 3.25388C8.31984 5.87968 5.38659 8.08172 2.54475 9.17896C2.54475 9.17896 1.47812 9.53462 1.40955 8.49035C1.40955 8.49035 1.42478 7.39311 1.58478 7.09043C1.74478 6.78774 2.10286 6.67423 2.10286 6.67423C2.10286 6.67423 6.97893 4.29058 7.35225 2.42149C7.72557 0.552403 6.67417 0.416194 6.67417 0.416194Z" fill="#0179C1"/>
<path d="M10.415 0.121094C10.415 0.121094 14.1406 0.749168 14.1635 2.46691C14.1635 2.46691 14.2092 4.93381 11.3674 7.75636C8.52555 10.5789 5.91228 11.8351 5.91228 11.8351C5.91228 11.8351 4.31232 12.3194 4.21328 10.7757C4.21328 10.7757 3.87043 9.68598 4.79993 9.23952C4.79993 9.23952 10.2246 6.00834 11.3674 2.64852C11.3598 2.64096 11.9693 1.01402 10.415 0.121094Z" fill="#0179C1"/>
<path d="M14.5977 1.80853C14.5977 1.80853 17.051 3.32196 17.2719 4.66892C17.4929 6.01587 16.0301 8.37683 16.0301 8.37683C16.0301 8.37683 11.9921 14.5365 3.31419 17.0715C3.31419 17.0715 1.80566 17.6542 1.02854 17.0715C0.251413 16.4888 -0.114292 15.7699 0.0304661 14.9678C0.129511 14.9224 0.243794 14.8846 0.373314 14.8467C0.609499 14.7786 0.822827 14.7408 1.00568 14.7257C1.00568 14.7257 7.09314 13.8403 11.9235 8.74005C11.9235 8.74005 16.2967 4.63865 14.5977 1.80853Z" fill="#0179C1"/>
<path d="M17.8052 5.0473C17.8052 5.0473 19.4814 7.41582 19.1919 8.5736C19.1919 8.5736 19.1461 11.3507 14.4225 15.263C14.4225 15.263 11.4968 18.2369 5.90458 19.9697C5.90458 19.9697 3.77131 20.3027 3.4437 18.8044C3.4437 18.8044 3.0399 18.078 3.97702 17.9796C3.97702 17.9796 9.31021 16.7688 13.9806 12.168C13.9882 12.1756 18.1938 8.5509 17.8052 5.0473Z" fill="#0179C1"/>
<path d="M19.5652 9.23193V12.4253C19.5652 12.4253 18.4376 16.2013 13.333 19.319C13.333 19.319 12.5559 19.8335 12.015 19.2509C12.015 19.2509 11.5045 18.5622 12.015 18.1233C12.5254 17.692 15.7558 15.8683 17.5767 13.2425C19.3976 10.6167 19.5652 9.23193 19.5652 9.23193Z" fill="#0179C1"/>
<path d="M19.3672 14.249C19.192 14.8165 18.9406 15.4748 18.552 16.171C17.7749 17.5558 16.8073 18.4941 16.1063 19.0617C15.8092 19.1298 15.4511 19.1828 15.3902 19.0617C15.2911 18.8574 16.053 18.2898 16.3044 18.1006C17.0892 17.4877 18.1711 16.3905 19.3672 14.249Z" fill="#0179C1"/>
</g>
<defs>
<clipPath id="clip0_190_537">
<rect width="19.5652" height="20" fill="white"/>
</clipPath>
</defs>
</svg>
