<svg width="25" height="24" viewBox="0 0 25 24" fill="none" xmlns="http://www.w3.org/2000/svg">
<g clip-path="url(#clip0_396_4083)">
<path fill-rule="evenodd" clip-rule="evenodd" d="M15.3746 10.5311C15.7273 9.95053 15.9305 9.26897 15.9305 8.53995C15.9305 7.97626 15.809 7.44094 15.5909 6.95873C14.9882 5.62671 13.6476 4.69995 12.0905 4.69995C10.5218 4.69995 9.1728 5.64059 8.57676 6.98859C8.56845 7.0074 8.56028 7.02629 8.55225 7.04525C8.35794 7.50466 8.25049 8.00976 8.25049 8.53995C8.25049 9.28662 8.4636 9.98351 8.83231 10.5731C9.51085 11.6582 10.7164 12.38 12.0905 12.38C13.4516 12.38 14.6473 11.6718 15.3293 10.6038C15.3446 10.5798 15.3597 10.5555 15.3746 10.5311ZM12.0905 10.38C13.1067 10.38 13.9305 9.55616 13.9305 8.53995C13.9305 7.52375 13.1067 6.69995 12.0905 6.69995C11.0743 6.69995 10.2505 7.52375 10.2505 8.53995C10.2505 9.55616 11.0743 10.38 12.0905 10.38Z" fill="#2D66A9"/>
<path fill-rule="evenodd" clip-rule="evenodd" d="M5.88974 16.3144C8.75716 11.6119 15.5795 11.6491 18.5254 16.2503C19.3513 17.5403 18.4587 19.3 16.872 19.3H7.56606C6.03367 19.3 5.09196 17.6228 5.88974 16.3144ZM16.8225 17.3H7.63174C9.72093 13.9624 14.6519 13.9535 16.8225 17.3Z" fill="#2D66A9"/>
<path d="M22.2502 18.3003H20.7137C20.877 17.6564 20.8842 16.9683 20.7076 16.3003H21.9278C21.3966 15.5779 20.7009 15.0682 19.9388 14.7705C19.2833 13.8505 18.4983 13.0884 17.6292 12.4861C19.9472 12.2667 22.3749 13.2713 23.7844 15.4728C24.5493 16.6676 23.7239 18.3003 22.2502 18.3003Z" fill="#2D66A9"/>
<path d="M5.97256 12.2505C6.46379 12.2505 6.92975 12.1424 7.34795 11.9486C6.96006 11.4099 6.66169 10.8024 6.47465 10.1479C6.32056 10.214 6.15083 10.2505 5.97256 10.2505C5.26823 10.2505 4.69727 9.67957 4.69727 8.97525C4.69727 8.27092 5.26823 7.69995 5.97256 7.69995C6.08732 7.69995 6.19855 7.71511 6.30434 7.74354C6.39703 7.06375 6.60671 6.42119 6.91241 5.83679C6.61471 5.74777 6.29922 5.69995 5.97256 5.69995C4.16366 5.69995 2.69727 7.16635 2.69727 8.97525C2.69727 10.7841 4.16366 12.2505 5.97256 12.2505Z" fill="#2D66A9"/>
<path d="M18.1718 12.2508C17.6913 12.2508 17.2349 12.1473 16.8238 11.9614C17.2135 11.4233 17.5136 10.8161 17.7024 10.1616C17.8477 10.2192 18.006 10.2508 18.1718 10.2508C18.8761 10.2508 19.4471 9.67981 19.4471 8.97549C19.4471 8.27116 18.8761 7.7002 18.1718 7.7002C18.0698 7.7002 17.9705 7.71218 17.8754 7.73481C17.7817 7.05472 17.5708 6.41201 17.2638 5.82769C17.5521 5.74467 17.8567 5.7002 18.1718 5.7002C19.9807 5.7002 21.4471 7.16659 21.4471 8.97549C21.4471 10.7844 19.9807 12.2508 18.1718 12.2508Z" fill="#2D66A9"/>
<path d="M0.558256 15.53C1.95111 13.2457 4.41122 12.2431 6.76254 12.4939C5.93298 13.0808 5.18188 13.8205 4.54937 14.7148C3.73349 15.0029 2.99206 15.5316 2.44468 16.3001H3.73584C3.55032 16.9734 3.55593 17.66 3.7191 18.3001H2.11362C0.691801 18.3001 -0.181953 16.7439 0.558256 15.53Z" fill="#2D66A9"/>
</g>
<defs>
<clipPath id="clip0_396_4083">
<rect width="24" height="24" fill="white" transform="translate(0.25)"/>
</clipPath>
</defs>
</svg>
