<svg width="24" height="25" viewBox="0 0 24 25" fill="none" xmlns="http://www.w3.org/2000/svg">
<path fill-rule="evenodd" clip-rule="evenodd" d="M10.8005 3.14298C10.73 3.20757 10.5 3.48676 10.5 4.5C10.5 5.82578 10.0661 7.16547 9.58426 8.31952C9.28546 9.03514 8.91949 9.78191 8.61068 10.412C8.44171 10.7568 8.28986 11.0667 8.17548 11.3174C8.12591 11.4281 8.06702 11.5328 8 11.6306V21.5718L9.9328 21.7157C12.8288 21.9314 14.0487 22.0104 15.0797 21.7611C17.2388 21.2392 19.3471 19.3137 20.0621 17.2106C20.4055 16.2007 20.431 15.2467 20.4684 12.94C20.4811 12.1574 20.255 11.5387 19.9184 11.1341C19.5945 10.7448 19.1278 10.5001 18.5032 10.5001H15C13.8954 10.5001 13 9.60462 13 8.50005H14H18.5032C19.7172 8.50005 20.7489 9.00529 21.4559 9.85499C22.1501 10.6894 22.4872 11.7988 22.4681 12.9724C22.4674 13.0206 22.4666 13.0683 22.4658 13.1156C22.4316 15.2384 22.4111 16.5152 21.9557 17.8545C21.0201 20.6061 18.3746 23.0222 15.5497 23.7051C14.1743 24.0376 12.6167 23.9215 9.99285 23.7257C9.92406 23.7206 9.85453 23.7154 9.78425 23.7102L6.96281 23.5H4C2.34315 23.5 1 22.1569 1 20.5V13.5001C1 11.8432 2.34315 10.5001 4 10.5001H6.35013L6.35395 10.4914C6.51824 10.131 6.69335 9.77557 6.87353 9.40978C7.15662 8.83505 7.45233 8.23471 7.73869 7.5489C8.18851 6.47162 8.5 5.4259 8.5 4.5C8.5 3.26156 8.77001 2.29075 9.4495 1.66826C10.1202 1.05381 10.9596 1 11.5 1C13.0442 1 15 2.43966 15 4.96589V8.50005H14H13V4.96589C13 3.56034 11.9558 3 11.5 3C11.0404 3 10.8798 3.07035 10.8005 3.14298ZM6 21.5V12.5001H4C3.44772 12.5001 3 12.9478 3 13.5001V20.5C3 21.0523 3.44772 21.5 4 21.5H6Z" fill="#737373"/>
</svg>
