<svg width="25" height="25" viewBox="0 0 25 25" fill="none" xmlns="http://www.w3.org/2000/svg">
<g clip-path="url(#clip0_944_112)">
<path fill-rule="evenodd" clip-rule="evenodd" d="M13.1684 22.3571C13.2389 22.2925 13.4689 22.0133 13.4689 21.0001C13.4689 19.6743 13.9028 18.3346 14.3846 17.1806C14.6835 16.4649 15.0494 15.7182 15.3582 15.0881C15.5272 14.7433 15.6791 14.4334 15.7934 14.1827C15.843 14.0719 15.9019 13.9673 15.9689 13.8694V3.92832L14.0361 3.78436C11.1401 3.56866 9.92018 3.48969 8.88922 3.73893C6.73014 4.2609 4.62185 6.18642 3.90677 8.28945C3.56338 9.29935 3.5379 10.2534 3.5005 12.5601C3.48781 13.3427 3.71393 13.9614 4.05054 14.366C4.37444 14.7553 4.8411 15 5.46575 15H8.96891C10.0735 15 10.9689 15.8955 10.9689 17H9.96891H5.46575C4.25174 17 3.21998 16.4948 2.51306 15.6451C1.81884 14.8107 1.48173 13.7013 1.50076 12.5276C1.50154 12.4795 1.50231 12.4318 1.50307 12.3845C1.53728 10.2617 1.55786 8.98485 2.01324 7.6456C2.94886 4.89399 5.5943 2.47788 8.41925 1.79493C9.79461 1.46243 11.3523 1.57862 13.9761 1.77433C14.0449 1.77946 14.1144 1.78465 14.1847 1.78988L17.0061 2.00003H19.9689C21.6258 2.00003 22.9689 3.34317 22.9689 5.00003V12C22.9689 13.6569 21.6258 15 19.9689 15H17.6188L17.615 15.0086C17.4507 15.3691 17.2756 15.7245 17.0954 16.0903C16.8123 16.665 16.5166 17.2654 16.2302 17.9512C15.7804 19.0285 15.4689 20.0742 15.4689 21.0001C15.4689 22.2385 15.1989 23.2093 14.5194 23.8318C13.8487 24.4463 13.0094 24.5001 12.4689 24.5001C10.9247 24.5001 8.96891 23.0604 8.96891 20.5342V17H9.96891H10.9689V20.5342C10.9689 21.9397 12.0131 22.5001 12.4689 22.5001C12.9285 22.5001 13.0891 22.4297 13.1684 22.3571ZM17.9689 4.00003V13H19.9689C20.5212 13 20.9689 12.5523 20.9689 12V5.00003C20.9689 4.44774 20.5212 4.00003 19.9689 4.00003H17.9689Z" fill="#737373"/>
</g>
<defs>
<clipPath id="clip0_944_112">
<rect width="24" height="24" fill="white" transform="translate(0.5 0.5)"/>
</clipPath>
</defs>
</svg>
