<svg width="25" height="25" viewBox="0 0 25 25" fill="none" xmlns="http://www.w3.org/2000/svg">
<path d="M17.5 13H22.5V2.5H17.5V13Z" fill="#2D66A9"/>
<path fill-rule="evenodd" clip-rule="evenodd" d="M13.6995 21.857C13.77 21.7924 14 21.5132 14 20.5C14 19.1742 14.4339 17.8345 14.9157 16.6805C15.2145 15.9649 15.5805 15.2181 15.8893 14.588C16.0583 14.2432 16.2101 13.9333 16.3245 13.6826C16.3741 13.5719 16.433 13.4672 16.5 13.3694L16.5 3.42824L14.5672 3.28428C11.6712 3.06859 10.4513 2.98961 9.42031 3.23885C7.26123 3.76082 5.15294 5.68634 4.43786 7.78937C4.09447 8.79927 4.06899 9.75333 4.03159 12.06C4.0189 12.8426 4.24502 13.4613 4.58163 13.8659C4.90553 14.2552 5.37218 14.4999 5.99683 14.4999H9.5C10.6046 14.4999 11.5 15.3954 11.5 16.4999H10.5H5.99683C4.78283 16.4999 3.75107 15.9947 3.04415 15.145C2.34993 14.3106 2.01282 13.2012 2.03185 12.0276C2.03263 11.9794 2.0334 11.9317 2.03416 11.8844C2.06837 9.76159 2.08895 8.48478 2.54432 7.14553C3.47994 4.39391 6.12539 1.9778 8.95034 1.29485C10.3257 0.962353 11.8833 1.07854 14.5071 1.27426C14.5759 1.27939 14.6455 1.28457 14.7157 1.28981L17.5372 1.49995H20.5C22.1569 1.49995 23.5 2.8431 23.5 4.49995L23.5 11.4999C23.5 13.1568 22.1569 14.4999 20.5 14.4999H18.1499L18.146 14.5086C17.9818 14.869 17.8066 15.2244 17.6265 15.5902C17.3434 16.1649 17.0477 16.7653 16.7613 17.4511C16.3115 18.5284 16 19.5741 16 20.5C16 21.7384 15.73 22.7093 15.0505 23.3317C14.3798 23.9462 13.5404 24 13 24C11.4558 24 9.5 22.5603 9.5 20.0341L9.5 16.4999H10.5H11.5L11.5 20.0341C11.5 21.4397 12.5442 22 13 22C13.4596 22 13.6202 21.9297 13.6995 21.857ZM18.5 3.49995L18.5 12.4999H20.5C21.0523 12.4999 21.5 12.0522 21.5 11.4999L21.5 4.49995C21.5 3.94767 21.0523 3.49995 20.5 3.49995H18.5Z" fill="#2D66A9"/>
</svg>
