<svg width="18" height="18" viewBox="0 0 18 18" fill="none" xmlns="http://www.w3.org/2000/svg">
<path d="M16.3086 4.83402V14C16.3086 15.6569 14.9654 17 13.3086 17H5C3.34315 17 2 15.6569 2 14V4C2 2.34315 3.34315 1 5 1H12.248L16.3086 4.83402Z" stroke="#6FB767" stroke-width="1.5" stroke-miterlimit="10" stroke-linecap="round" stroke-linejoin="round"/>
<path d="M15.8314 4.9183C15.963 5.04253 15.8751 5.26372 15.6941 5.26372H12.3543C12.2438 5.26372 12.1543 5.17417 12.1543 5.06372V1.9102C12.1543 1.73477 12.3641 1.64434 12.4916 1.76478L15.8314 4.9183Z" stroke="#6FB767" stroke-width="1.5" stroke-miterlimit="10" stroke-linecap="round" stroke-linejoin="round"/>
<path d="M12.5681 1.43982L16.291 4.81747L16.3086 4.83407" stroke="#6FB767" stroke-width="1.5" stroke-miterlimit="10" stroke-linecap="round" stroke-linejoin="round"/>
<path d="M11.3333 9.5L8.88886 11.8333L7.66666 10.6667" stroke="#6FB767" stroke-width="1.5" stroke-linecap="round" stroke-linejoin="round"/>
<path d="M9.5 14.5C11.7091 14.5 13.5 12.7091 13.5 10.5C13.5 8.29086 11.7091 6.5 9.5 6.5C7.29086 6.5 5.5 8.29086 5.5 10.5C5.5 12.7091 7.29086 14.5 9.5 14.5Z" stroke="#6FB767" stroke-width="1.5" stroke-linecap="round" stroke-linejoin="round"/>
</svg>
